<svg xmlns="http://www.w3.org/2000/svg" xmlns:xlink="http://www.w3.org/1999/xlink" width="400" zoomAndPan="magnify" viewBox="0 0 300 74.999997" height="100" preserveAspectRatio="xMidYMid meet" version="1.0"><defs><g/><clipPath id="b374c46b73"><path d="M 7.5 15.882812 L 48.75 15.882812 L 48.75 59.367188 L 7.5 59.367188 Z M 7.5 15.882812 " clip-rule="nonzero"/></clipPath></defs><g fill="#e4e2dd" fill-opacity="1"><g transform="translate(57.855752, 39.561632)"><g><path d="M 20.171875 0 L 15.578125 0 L 15.578125 -9.578125 L 6.59375 -9.578125 L 6.59375 0 L 2 0 L 2 -22.34375 L 6.59375 -22.34375 L 6.59375 -13.28125 L 15.578125 -13.28125 L 15.578125 -22.34375 L 20.171875 -22.34375 Z M 20.171875 0 "/></g></g></g><g fill="#e4e2dd" fill-opacity="1"><g transform="translate(81.622443, 39.561632)"><g><path d="M 14.609375 -4.609375 L 6.53125 -4.609375 L 5 0 L 0.109375 0 L 8.421875 -22.34375 L 12.6875 -22.34375 L 21.046875 0 L 16.15625 0 Z M 7.78125 -8.328125 L 13.359375 -8.328125 L 10.5625 -16.6875 Z M 7.78125 -8.328125 "/></g></g></g><g fill="#e4e2dd" fill-opacity="1"><g transform="translate(104.330724, 39.561632)"><g><path d="M 19.53125 -7.4375 C 19.351562 -5.03125 18.460938 -3.132812 16.859375 -1.75 C 15.265625 -0.375 13.160156 0.3125 10.546875 0.3125 C 7.679688 0.3125 5.425781 -0.648438 3.78125 -2.578125 C 2.132812 -4.515625 1.3125 -7.164062 1.3125 -10.53125 L 1.3125 -11.890625 C 1.3125 -14.035156 1.691406 -15.925781 2.453125 -17.5625 C 3.210938 -19.195312 4.296875 -20.453125 5.703125 -21.328125 C 7.109375 -22.203125 8.742188 -22.640625 10.609375 -22.640625 C 13.179688 -22.640625 15.253906 -21.945312 16.828125 -20.5625 C 18.398438 -19.1875 19.3125 -17.253906 19.5625 -14.765625 L 14.953125 -14.765625 C 14.847656 -16.203125 14.445312 -17.242188 13.75 -17.890625 C 13.0625 -18.546875 12.015625 -18.875 10.609375 -18.875 C 9.066406 -18.875 7.914062 -18.320312 7.15625 -17.21875 C 6.394531 -16.125 6.003906 -14.421875 5.984375 -12.109375 L 5.984375 -10.421875 C 5.984375 -8.003906 6.347656 -6.238281 7.078125 -5.125 C 7.804688 -4.007812 8.960938 -3.453125 10.546875 -3.453125 C 11.960938 -3.453125 13.019531 -3.773438 13.71875 -4.421875 C 14.425781 -5.078125 14.828125 -6.082031 14.921875 -7.4375 Z M 19.53125 -7.4375 "/></g></g></g><g fill="#e4e2dd" fill-opacity="1"><g transform="translate(126.456114, 39.561632)"><g><path d="M 8.984375 -8.953125 L 6.59375 -6.375 L 6.59375 0 L 2 0 L 2 -22.34375 L 6.59375 -22.34375 L 6.59375 -12.21875 L 8.625 -14.984375 L 14.3125 -22.34375 L 19.96875 -22.34375 L 12.046875 -12.40625 L 20.203125 0 L 14.734375 0 Z M 8.984375 -8.953125 "/></g></g></g><g fill="#e4e2dd" fill-opacity="1"><g transform="translate(147.96793, 39.561632)"><g><path d="M 18.8125 -18.609375 L 11.96875 -18.609375 L 11.96875 0 L 7.359375 0 L 7.359375 -18.609375 L 0.609375 -18.609375 L 0.609375 -22.34375 L 18.8125 -22.34375 Z M 18.8125 -18.609375 "/></g></g></g><g fill="#e4e2dd" fill-opacity="1"><g transform="translate(168.973549, 39.561632)"><g><path d="M 6.890625 0 L 2.28125 0 L 2.28125 -22.34375 L 6.890625 -22.34375 Z M 6.890625 0 "/></g></g></g><g fill="#e4e2dd" fill-opacity="1"><g transform="translate(179.701852, 39.561632)"><g><path d="M 10.25 -5.53125 L 15.3125 -22.34375 L 20.4375 -22.34375 L 12.65625 0 L 7.859375 0 L 0.109375 -22.34375 L 5.21875 -22.34375 Z M 10.25 -5.53125 "/></g></g></g><g fill="#e4e2dd" fill-opacity="1"><g transform="translate(201.811899, 39.561632)"><g><path d="M 14.609375 -4.609375 L 6.53125 -4.609375 L 5 0 L 0.109375 0 L 8.421875 -22.34375 L 12.6875 -22.34375 L 21.046875 0 L 16.15625 0 Z M 7.78125 -8.328125 L 13.359375 -8.328125 L 10.5625 -16.6875 Z M 7.78125 -8.328125 "/></g></g></g><g fill="#e4e2dd" fill-opacity="1"><g transform="translate(224.520185, 39.561632)"><g><path d="M 18.8125 -18.609375 L 11.96875 -18.609375 L 11.96875 0 L 7.359375 0 L 7.359375 -18.609375 L 0.609375 -18.609375 L 0.609375 -22.34375 L 18.8125 -22.34375 Z M 18.8125 -18.609375 "/></g></g></g><g fill="#e4e2dd" fill-opacity="1"><g transform="translate(245.525811, 39.561632)"><g><path d="M 20.34375 -10.65625 C 20.34375 -8.457031 19.953125 -6.53125 19.171875 -4.875 C 18.398438 -3.21875 17.289062 -1.9375 15.84375 -1.03125 C 14.394531 -0.132812 12.734375 0.3125 10.859375 0.3125 C 9.003906 0.3125 7.351562 -0.128906 5.90625 -1.015625 C 4.457031 -1.910156 3.332031 -3.179688 2.53125 -4.828125 C 1.726562 -6.484375 1.320312 -8.390625 1.3125 -10.546875 L 1.3125 -11.640625 C 1.3125 -13.835938 1.707031 -15.769531 2.5 -17.4375 C 3.300781 -19.113281 4.425781 -20.398438 5.875 -21.296875 C 7.320312 -22.191406 8.972656 -22.640625 10.828125 -22.640625 C 12.691406 -22.640625 14.347656 -22.191406 15.796875 -21.296875 C 17.242188 -20.398438 18.363281 -19.113281 19.15625 -17.4375 C 19.945312 -15.769531 20.34375 -13.84375 20.34375 -11.65625 Z M 15.6875 -11.671875 C 15.6875 -14.015625 15.265625 -15.796875 14.421875 -17.015625 C 13.578125 -18.234375 12.378906 -18.84375 10.828125 -18.84375 C 9.285156 -18.84375 8.09375 -18.238281 7.25 -17.03125 C 6.414062 -15.832031 5.992188 -14.070312 5.984375 -11.75 L 5.984375 -10.65625 C 5.984375 -8.375 6.398438 -6.601562 7.234375 -5.34375 C 8.078125 -4.09375 9.285156 -3.46875 10.859375 -3.46875 C 12.398438 -3.46875 13.585938 -4.070312 14.421875 -5.28125 C 15.253906 -6.5 15.675781 -8.269531 15.6875 -10.59375 Z M 15.6875 -11.671875 "/></g></g></g><g fill="#e4e2dd" fill-opacity="1"><g transform="translate(268.786311, 39.561632)"><g><path d="M 10.265625 -8.171875 L 6.59375 -8.171875 L 6.59375 0 L 2 0 L 2 -22.34375 L 10.296875 -22.34375 C 12.929688 -22.34375 14.960938 -21.753906 16.390625 -20.578125 C 17.828125 -19.398438 18.546875 -17.738281 18.546875 -15.59375 C 18.546875 -14.0625 18.210938 -12.785156 17.546875 -11.765625 C 16.890625 -10.753906 15.894531 -9.945312 14.5625 -9.34375 L 19.390625 -0.21875 L 19.390625 0 L 14.453125 0 Z M 6.59375 -11.90625 L 10.3125 -11.90625 C 11.46875 -11.90625 12.363281 -12.195312 13 -12.78125 C 13.632812 -13.375 13.953125 -14.1875 13.953125 -15.21875 C 13.953125 -16.269531 13.648438 -17.097656 13.046875 -17.703125 C 12.453125 -18.304688 11.535156 -18.609375 10.296875 -18.609375 L 6.59375 -18.609375 Z M 6.59375 -11.90625 "/></g></g></g><g fill="#e4e2dd" fill-opacity="1"><g transform="translate(57.855752, 57.454736)"><g><path d="M 0.671875 -5.484375 C 0.671875 -6.546875 0.910156 -7.503906 1.390625 -8.359375 C 1.878906 -9.210938 2.535156 -9.878906 3.359375 -10.359375 C 4.191406 -10.847656 5.117188 -11.09375 6.140625 -11.09375 C 7.335938 -11.09375 8.378906 -10.800781 9.265625 -10.21875 C 10.148438 -9.644531 10.800781 -8.828125 11.21875 -7.765625 L 9.5 -7.765625 C 9.195312 -8.429688 8.757812 -8.941406 8.1875 -9.296875 C 7.613281 -9.648438 6.929688 -9.828125 6.140625 -9.828125 C 5.378906 -9.828125 4.691406 -9.648438 4.078125 -9.296875 C 3.472656 -8.941406 3 -8.4375 2.65625 -7.78125 C 2.3125 -7.125 2.140625 -6.359375 2.140625 -5.484375 C 2.140625 -4.609375 2.3125 -3.84375 2.65625 -3.1875 C 3 -2.539062 3.472656 -2.035156 4.078125 -1.671875 C 4.691406 -1.316406 5.378906 -1.140625 6.140625 -1.140625 C 6.929688 -1.140625 7.613281 -1.316406 8.1875 -1.671875 C 8.757812 -2.023438 9.195312 -2.53125 9.5 -3.1875 L 11.21875 -3.1875 C 10.800781 -2.144531 10.148438 -1.335938 9.265625 -0.765625 C 8.378906 -0.191406 7.335938 0.09375 6.140625 0.09375 C 5.117188 0.09375 4.191406 -0.140625 3.359375 -0.609375 C 2.535156 -1.085938 1.878906 -1.75 1.390625 -2.59375 C 0.910156 -3.445312 0.671875 -4.410156 0.671875 -5.484375 Z M 0.671875 -5.484375 "/></g></g></g><g fill="#e4e2dd" fill-opacity="1"><g transform="translate(71.175693, 57.454736)"><g><path d="M 6.171875 0.109375 C 5.148438 0.109375 4.222656 -0.125 3.390625 -0.59375 C 2.554688 -1.070312 1.894531 -1.738281 1.40625 -2.59375 C 0.914062 -3.445312 0.671875 -4.410156 0.671875 -5.484375 C 0.671875 -6.546875 0.914062 -7.503906 1.40625 -8.359375 C 1.894531 -9.210938 2.554688 -9.878906 3.390625 -10.359375 C 4.222656 -10.835938 5.148438 -11.078125 6.171875 -11.078125 C 7.191406 -11.078125 8.117188 -10.835938 8.953125 -10.359375 C 9.796875 -9.878906 10.457031 -9.210938 10.9375 -8.359375 C 11.425781 -7.515625 11.671875 -6.554688 11.671875 -5.484375 C 11.671875 -4.398438 11.425781 -3.429688 10.9375 -2.578125 C 10.457031 -1.734375 9.796875 -1.070312 8.953125 -0.59375 C 8.117188 -0.125 7.191406 0.109375 6.171875 0.109375 Z M 6.171875 -1.125 C 6.929688 -1.125 7.617188 -1.300781 8.234375 -1.65625 C 8.847656 -2.019531 9.328125 -2.53125 9.671875 -3.1875 C 10.023438 -3.84375 10.203125 -4.609375 10.203125 -5.484375 C 10.203125 -6.359375 10.023438 -7.125 9.671875 -7.78125 C 9.328125 -8.4375 8.847656 -8.941406 8.234375 -9.296875 C 7.628906 -9.648438 6.941406 -9.828125 6.171875 -9.828125 C 5.398438 -9.828125 4.707031 -9.648438 4.09375 -9.296875 C 3.488281 -8.941406 3.007812 -8.4375 2.65625 -7.78125 C 2.3125 -7.125 2.140625 -6.359375 2.140625 -5.484375 C 2.140625 -4.609375 2.3125 -3.84375 2.65625 -3.1875 C 3.007812 -2.53125 3.492188 -2.019531 4.109375 -1.65625 C 4.722656 -1.300781 5.410156 -1.125 6.171875 -1.125 Z M 6.171875 -1.125 "/></g></g></g><g fill="#e4e2dd" fill-opacity="1"><g transform="translate(84.715537, 57.454736)"><g><path d="M 4.609375 -10.9375 C 5.804688 -10.9375 6.84375 -10.710938 7.71875 -10.265625 C 8.59375 -9.828125 9.257812 -9.191406 9.71875 -8.359375 C 10.1875 -7.535156 10.421875 -6.566406 10.421875 -5.453125 C 10.421875 -4.328125 10.1875 -3.351562 9.71875 -2.53125 C 9.257812 -1.707031 8.59375 -1.078125 7.71875 -0.640625 C 6.84375 -0.210938 5.804688 0 4.609375 0 L 1.203125 0 L 1.203125 -10.9375 Z M 4.609375 -1.171875 C 6.023438 -1.171875 7.101562 -1.546875 7.84375 -2.296875 C 8.59375 -3.046875 8.96875 -4.097656 8.96875 -5.453125 C 8.96875 -6.804688 8.59375 -7.863281 7.84375 -8.625 C 7.09375 -9.394531 6.015625 -9.78125 4.609375 -9.78125 L 2.640625 -9.78125 L 2.640625 -1.171875 Z M 4.609375 -1.171875 "/></g></g></g><g fill="#e4e2dd" fill-opacity="1"><g transform="translate(97.014503, 57.454736)"><g><path d="M 2.640625 -9.78125 L 2.640625 -6.125 L 6.625 -6.125 L 6.625 -4.953125 L 2.640625 -4.953125 L 2.640625 -1.171875 L 7.09375 -1.171875 L 7.09375 0 L 1.203125 0 L 1.203125 -10.953125 L 7.09375 -10.953125 L 7.09375 -9.78125 Z M 2.640625 -9.78125 "/></g></g></g><g fill="#e4e2dd" fill-opacity="1"><g transform="translate(106.266225, 57.454736)"><g><path d="M 1.671875 0.09375 C 1.390625 0.09375 1.15625 0 0.96875 -0.1875 C 0.78125 -0.375 0.6875 -0.601562 0.6875 -0.875 C 0.6875 -1.144531 0.78125 -1.375 0.96875 -1.5625 C 1.15625 -1.757812 1.390625 -1.859375 1.671875 -1.859375 C 1.929688 -1.859375 2.148438 -1.757812 2.328125 -1.5625 C 2.515625 -1.375 2.609375 -1.144531 2.609375 -0.875 C 2.609375 -0.601562 2.515625 -0.375 2.328125 -0.1875 C 2.148438 0 1.929688 0.09375 1.671875 0.09375 Z M 1.671875 0.09375 "/></g></g></g><g fill="#e4e2dd" fill-opacity="1"><g transform="translate(110.758577, 57.454736)"><g/></g></g><g fill="#e4e2dd" fill-opacity="1"><g transform="translate(116.146254, 57.454736)"><g><path d="M 0.671875 -5.484375 C 0.671875 -6.546875 0.910156 -7.503906 1.390625 -8.359375 C 1.878906 -9.210938 2.535156 -9.878906 3.359375 -10.359375 C 4.191406 -10.847656 5.117188 -11.09375 6.140625 -11.09375 C 7.335938 -11.09375 8.378906 -10.800781 9.265625 -10.21875 C 10.148438 -9.644531 10.800781 -8.828125 11.21875 -7.765625 L 9.5 -7.765625 C 9.195312 -8.429688 8.757812 -8.941406 8.1875 -9.296875 C 7.613281 -9.648438 6.929688 -9.828125 6.140625 -9.828125 C 5.378906 -9.828125 4.691406 -9.648438 4.078125 -9.296875 C 3.472656 -8.941406 3 -8.4375 2.65625 -7.78125 C 2.3125 -7.125 2.140625 -6.359375 2.140625 -5.484375 C 2.140625 -4.609375 2.3125 -3.84375 2.65625 -3.1875 C 3 -2.539062 3.472656 -2.035156 4.078125 -1.671875 C 4.691406 -1.316406 5.378906 -1.140625 6.140625 -1.140625 C 6.929688 -1.140625 7.613281 -1.316406 8.1875 -1.671875 C 8.757812 -2.023438 9.195312 -2.53125 9.5 -3.1875 L 11.21875 -3.1875 C 10.800781 -2.144531 10.148438 -1.335938 9.265625 -0.765625 C 8.378906 -0.191406 7.335938 0.09375 6.140625 0.09375 C 5.117188 0.09375 4.191406 -0.140625 3.359375 -0.609375 C 2.535156 -1.085938 1.878906 -1.75 1.390625 -2.59375 C 0.910156 -3.445312 0.671875 -4.410156 0.671875 -5.484375 Z M 0.671875 -5.484375 "/></g></g></g><g fill="#e4e2dd" fill-opacity="1"><g transform="translate(129.466192, 57.454736)"><g><path d="M 6.96875 0 L 4.359375 -4.46875 L 2.640625 -4.46875 L 2.640625 0 L 1.203125 0 L 1.203125 -10.9375 L 4.75 -10.9375 C 5.570312 -10.9375 6.265625 -10.796875 6.828125 -10.515625 C 7.398438 -10.234375 7.828125 -9.851562 8.109375 -9.375 C 8.398438 -8.894531 8.546875 -8.34375 8.546875 -7.71875 C 8.546875 -6.96875 8.328125 -6.304688 7.890625 -5.734375 C 7.453125 -5.160156 6.800781 -4.773438 5.9375 -4.578125 L 8.6875 0 Z M 2.640625 -5.625 L 4.75 -5.625 C 5.519531 -5.625 6.097656 -5.8125 6.484375 -6.1875 C 6.867188 -6.570312 7.0625 -7.082031 7.0625 -7.71875 C 7.0625 -8.375 6.867188 -8.878906 6.484375 -9.234375 C 6.109375 -9.585938 5.53125 -9.765625 4.75 -9.765625 L 2.640625 -9.765625 Z M 2.640625 -5.625 "/></g></g></g><g fill="#e4e2dd" fill-opacity="1"><g transform="translate(140.210127, 57.454736)"><g><path d="M 2.640625 -9.78125 L 2.640625 -6.125 L 6.625 -6.125 L 6.625 -4.953125 L 2.640625 -4.953125 L 2.640625 -1.171875 L 7.09375 -1.171875 L 7.09375 0 L 1.203125 0 L 1.203125 -10.953125 L 7.09375 -10.953125 L 7.09375 -9.78125 Z M 2.640625 -9.78125 "/></g></g></g><g fill="#e4e2dd" fill-opacity="1"><g transform="translate(149.461853, 57.454736)"><g><path d="M 7.671875 -2.4375 L 2.90625 -2.4375 L 2.03125 0 L 0.515625 0 L 4.46875 -10.875 L 6.125 -10.875 L 10.0625 0 L 8.5625 0 Z M 7.265625 -3.59375 L 5.296875 -9.125 L 3.3125 -3.59375 Z M 7.265625 -3.59375 "/></g></g></g><g fill="#e4e2dd" fill-opacity="1"><g transform="translate(161.242477, 57.454736)"><g><path d="M 7.953125 -10.9375 L 7.953125 -9.78125 L 4.96875 -9.78125 L 4.96875 0 L 3.53125 0 L 3.53125 -9.78125 L 0.53125 -9.78125 L 0.53125 -10.9375 Z M 7.953125 -10.9375 "/></g></g></g><g fill="#e4e2dd" fill-opacity="1"><g transform="translate(170.934009, 57.454736)"><g><path d="M 2.640625 -9.78125 L 2.640625 -6.125 L 6.625 -6.125 L 6.625 -4.953125 L 2.640625 -4.953125 L 2.640625 -1.171875 L 7.09375 -1.171875 L 7.09375 0 L 1.203125 0 L 1.203125 -10.953125 L 7.09375 -10.953125 L 7.09375 -9.78125 Z M 2.640625 -9.78125 "/></g></g></g><g fill="#e4e2dd" fill-opacity="1"><g transform="translate(180.185735, 57.454736)"><g><path d="M 1.671875 0.09375 C 1.390625 0.09375 1.15625 0 0.96875 -0.1875 C 0.78125 -0.375 0.6875 -0.601562 0.6875 -0.875 C 0.6875 -1.144531 0.78125 -1.375 0.96875 -1.5625 C 1.15625 -1.757812 1.390625 -1.859375 1.671875 -1.859375 C 1.929688 -1.859375 2.148438 -1.757812 2.328125 -1.5625 C 2.515625 -1.375 2.609375 -1.144531 2.609375 -0.875 C 2.609375 -0.601562 2.515625 -0.375 2.328125 -0.1875 C 2.148438 0 1.929688 0.09375 1.671875 0.09375 Z M 1.671875 0.09375 "/></g></g></g><g fill="#e4e2dd" fill-opacity="1"><g transform="translate(184.67809, 57.454736)"><g/></g></g><g fill="#e4e2dd" fill-opacity="1"><g transform="translate(190.065772, 57.454736)"><g><path d="M 0.671875 -5.484375 C 0.671875 -6.546875 0.910156 -7.503906 1.390625 -8.359375 C 1.878906 -9.210938 2.535156 -9.878906 3.359375 -10.359375 C 4.191406 -10.847656 5.117188 -11.09375 6.140625 -11.09375 C 7.335938 -11.09375 8.378906 -10.800781 9.265625 -10.21875 C 10.148438 -9.644531 10.800781 -8.828125 11.21875 -7.765625 L 9.5 -7.765625 C 9.195312 -8.429688 8.757812 -8.941406 8.1875 -9.296875 C 7.613281 -9.648438 6.929688 -9.828125 6.140625 -9.828125 C 5.378906 -9.828125 4.691406 -9.648438 4.078125 -9.296875 C 3.472656 -8.941406 3 -8.4375 2.65625 -7.78125 C 2.3125 -7.125 2.140625 -6.359375 2.140625 -5.484375 C 2.140625 -4.609375 2.3125 -3.84375 2.65625 -3.1875 C 3 -2.539062 3.472656 -2.035156 4.078125 -1.671875 C 4.691406 -1.316406 5.378906 -1.140625 6.140625 -1.140625 C 6.929688 -1.140625 7.613281 -1.316406 8.1875 -1.671875 C 8.757812 -2.023438 9.195312 -2.53125 9.5 -3.1875 L 11.21875 -3.1875 C 10.800781 -2.144531 10.148438 -1.335938 9.265625 -0.765625 C 8.378906 -0.191406 7.335938 0.09375 6.140625 0.09375 C 5.117188 0.09375 4.191406 -0.140625 3.359375 -0.609375 C 2.535156 -1.085938 1.878906 -1.75 1.390625 -2.59375 C 0.910156 -3.445312 0.671875 -4.410156 0.671875 -5.484375 Z M 0.671875 -5.484375 "/></g></g></g><g fill="#e4e2dd" fill-opacity="1"><g transform="translate(203.385716, 57.454736)"><g><path d="M 6.171875 0.109375 C 5.148438 0.109375 4.222656 -0.125 3.390625 -0.59375 C 2.554688 -1.070312 1.894531 -1.738281 1.40625 -2.59375 C 0.914062 -3.445312 0.671875 -4.410156 0.671875 -5.484375 C 0.671875 -6.546875 0.914062 -7.503906 1.40625 -8.359375 C 1.894531 -9.210938 2.554688 -9.878906 3.390625 -10.359375 C 4.222656 -10.835938 5.148438 -11.078125 6.171875 -11.078125 C 7.191406 -11.078125 8.117188 -10.835938 8.953125 -10.359375 C 9.796875 -9.878906 10.457031 -9.210938 10.9375 -8.359375 C 11.425781 -7.515625 11.671875 -6.554688 11.671875 -5.484375 C 11.671875 -4.398438 11.425781 -3.429688 10.9375 -2.578125 C 10.457031 -1.734375 9.796875 -1.070312 8.953125 -0.59375 C 8.117188 -0.125 7.191406 0.109375 6.171875 0.109375 Z M 6.171875 -1.125 C 6.929688 -1.125 7.617188 -1.300781 8.234375 -1.65625 C 8.847656 -2.019531 9.328125 -2.53125 9.671875 -3.1875 C 10.023438 -3.84375 10.203125 -4.609375 10.203125 -5.484375 C 10.203125 -6.359375 10.023438 -7.125 9.671875 -7.78125 C 9.328125 -8.4375 8.847656 -8.941406 8.234375 -9.296875 C 7.628906 -9.648438 6.941406 -9.828125 6.171875 -9.828125 C 5.398438 -9.828125 4.707031 -9.648438 4.09375 -9.296875 C 3.488281 -8.941406 3.007812 -8.4375 2.65625 -7.78125 C 2.3125 -7.125 2.140625 -6.359375 2.140625 -5.484375 C 2.140625 -4.609375 2.3125 -3.84375 2.65625 -3.1875 C 3.007812 -2.53125 3.492188 -2.019531 4.109375 -1.65625 C 4.722656 -1.300781 5.410156 -1.125 6.171875 -1.125 Z M 6.171875 -1.125 "/></g></g></g><g fill="#e4e2dd" fill-opacity="1"><g transform="translate(216.925564, 57.454736)"><g><path d="M 9.8125 0 L 8.390625 0 L 2.640625 -8.71875 L 2.640625 0 L 1.203125 0 L 1.203125 -10.953125 L 2.640625 -10.953125 L 8.390625 -2.265625 L 8.390625 -10.953125 L 9.8125 -10.953125 Z M 9.8125 0 "/></g></g></g><g fill="#e4e2dd" fill-opacity="1"><g transform="translate(229.161693, 57.454736)"><g><path d="M 9.984375 2.078125 L 7.796875 -0.109375 C 7.265625 0.0351562 6.722656 0.109375 6.171875 0.109375 C 5.148438 0.109375 4.222656 -0.125 3.390625 -0.59375 C 2.554688 -1.070312 1.894531 -1.738281 1.40625 -2.59375 C 0.914062 -3.445312 0.671875 -4.410156 0.671875 -5.484375 C 0.671875 -6.546875 0.914062 -7.503906 1.40625 -8.359375 C 1.894531 -9.210938 2.554688 -9.878906 3.390625 -10.359375 C 4.222656 -10.835938 5.148438 -11.078125 6.171875 -11.078125 C 7.191406 -11.078125 8.117188 -10.835938 8.953125 -10.359375 C 9.796875 -9.878906 10.457031 -9.210938 10.9375 -8.359375 C 11.425781 -7.515625 11.671875 -6.554688 11.671875 -5.484375 C 11.671875 -4.429688 11.4375 -3.484375 10.96875 -2.640625 C 10.507812 -1.804688 9.878906 -1.148438 9.078125 -0.671875 L 11.84375 2.078125 Z M 2.140625 -5.484375 C 2.140625 -4.609375 2.3125 -3.84375 2.65625 -3.1875 C 3.007812 -2.53125 3.492188 -2.019531 4.109375 -1.65625 C 4.722656 -1.300781 5.410156 -1.125 6.171875 -1.125 C 6.929688 -1.125 7.617188 -1.300781 8.234375 -1.65625 C 8.847656 -2.019531 9.328125 -2.53125 9.671875 -3.1875 C 10.023438 -3.84375 10.203125 -4.609375 10.203125 -5.484375 C 10.203125 -6.359375 10.023438 -7.125 9.671875 -7.78125 C 9.328125 -8.4375 8.847656 -8.941406 8.234375 -9.296875 C 7.628906 -9.648438 6.941406 -9.828125 6.171875 -9.828125 C 5.398438 -9.828125 4.707031 -9.648438 4.09375 -9.296875 C 3.488281 -8.941406 3.007812 -8.4375 2.65625 -7.78125 C 2.3125 -7.125 2.140625 -6.359375 2.140625 -5.484375 Z M 2.140625 -5.484375 "/></g></g></g><g fill="#e4e2dd" fill-opacity="1"><g transform="translate(242.732968, 57.454736)"><g><path d="M 2.609375 -10.9375 L 2.609375 -4.015625 C 2.609375 -3.046875 2.84375 -2.320312 3.3125 -1.84375 C 3.789062 -1.375 4.457031 -1.140625 5.3125 -1.140625 C 6.144531 -1.140625 6.800781 -1.375 7.28125 -1.84375 C 7.757812 -2.320312 8 -3.046875 8 -4.015625 L 8 -10.9375 L 9.421875 -10.9375 L 9.421875 -4.03125 C 9.421875 -3.125 9.238281 -2.359375 8.875 -1.734375 C 8.507812 -1.109375 8.015625 -0.644531 7.390625 -0.34375 C 6.765625 -0.0390625 6.066406 0.109375 5.296875 0.109375 C 4.515625 0.109375 3.8125 -0.0390625 3.1875 -0.34375 C 2.570312 -0.644531 2.082031 -1.109375 1.71875 -1.734375 C 1.351562 -2.359375 1.171875 -3.125 1.171875 -4.03125 L 1.171875 -10.9375 Z M 2.609375 -10.9375 "/></g></g></g><g fill="#e4e2dd" fill-opacity="1"><g transform="translate(254.529291, 57.454736)"><g><path d="M 2.640625 -9.78125 L 2.640625 -6.125 L 6.625 -6.125 L 6.625 -4.953125 L 2.640625 -4.953125 L 2.640625 -1.171875 L 7.09375 -1.171875 L 7.09375 0 L 1.203125 0 L 1.203125 -10.953125 L 7.09375 -10.953125 L 7.09375 -9.78125 Z M 2.640625 -9.78125 "/></g></g></g><g fill="#e4e2dd" fill-opacity="1"><g transform="translate(263.781017, 57.454736)"><g><path d="M 6.96875 0 L 4.359375 -4.46875 L 2.640625 -4.46875 L 2.640625 0 L 1.203125 0 L 1.203125 -10.9375 L 4.75 -10.9375 C 5.570312 -10.9375 6.265625 -10.796875 6.828125 -10.515625 C 7.398438 -10.234375 7.828125 -9.851562 8.109375 -9.375 C 8.398438 -8.894531 8.546875 -8.34375 8.546875 -7.71875 C 8.546875 -6.96875 8.328125 -6.304688 7.890625 -5.734375 C 7.453125 -5.160156 6.800781 -4.773438 5.9375 -4.578125 L 8.6875 0 Z M 2.640625 -5.625 L 4.75 -5.625 C 5.519531 -5.625 6.097656 -5.8125 6.484375 -6.1875 C 6.867188 -6.570312 7.0625 -7.082031 7.0625 -7.71875 C 7.0625 -8.375 6.867188 -8.878906 6.484375 -9.234375 C 6.109375 -9.585938 5.53125 -9.765625 4.75 -9.765625 L 2.640625 -9.765625 Z M 2.640625 -5.625 "/></g></g></g><g fill="#e4e2dd" fill-opacity="1"><g transform="translate(274.524952, 57.454736)"><g><path d="M 1.671875 0.09375 C 1.390625 0.09375 1.15625 0 0.96875 -0.1875 C 0.78125 -0.375 0.6875 -0.601562 0.6875 -0.875 C 0.6875 -1.144531 0.78125 -1.375 0.96875 -1.5625 C 1.15625 -1.757812 1.390625 -1.859375 1.671875 -1.859375 C 1.929688 -1.859375 2.148438 -1.757812 2.328125 -1.5625 C 2.515625 -1.375 2.609375 -1.144531 2.609375 -0.875 C 2.609375 -0.601562 2.515625 -0.375 2.328125 -0.1875 C 2.148438 0 1.929688 0.09375 1.671875 0.09375 Z M 1.671875 0.09375 "/></g></g></g><g clip-path="url(#b374c46b73)"><path fill="#e4e2dd" d="M 49.082031 15.886719 L 49.082031 33.511719 C 49.082031 34.976562 47.890625 36.167969 46.421875 36.167969 L 11.265625 36.167969 C 9.183594 36.167969 7.5 34.484375 7.5 32.40625 L 7.5 15.886719 C 9.703125 15.886719 11.488281 17.671875 11.488281 19.875 L 11.488281 32.179688 L 45.09375 32.179688 L 45.09375 19.871094 C 45.09375 17.671875 46.878906 15.886719 49.082031 15.886719 Z M 14.144531 19.871094 L 14.144531 29.523438 L 42.433594 29.523438 L 42.433594 19.875 C 42.433594 17.671875 40.648438 15.886719 38.445312 15.886719 L 38.445312 25.535156 L 18.136719 25.535156 L 18.136719 15.886719 C 15.933594 15.886719 14.144531 17.671875 14.144531 19.871094 Z M 11.488281 55.125 L 11.488281 42.816406 L 45.09375 42.816406 L 45.09375 55.125 C 45.09375 57.324219 46.878906 59.113281 49.082031 59.113281 L 49.082031 41.484375 C 49.082031 40.019531 47.890625 38.828125 46.421875 38.828125 L 10.160156 38.828125 C 8.691406 38.828125 7.5 40.019531 7.5 41.488281 L 7.5 59.109375 C 9.703125 59.109375 11.488281 57.324219 11.488281 55.125 Z M 42.433594 55.125 L 42.433594 45.472656 L 14.144531 45.472656 L 14.144531 55.121094 C 14.144531 57.324219 15.933594 59.109375 18.136719 59.109375 L 18.136719 49.460938 L 38.445312 49.460938 L 38.445312 59.109375 C 40.648438 59.109375 42.433594 57.324219 42.433594 55.125 Z M 42.433594 55.125 " fill-opacity="1" fill-rule="nonzero"/></g></svg>